<?xml version="1.0" encoding="utf-8"?>
<!-- Generator: Adobe Illustrator 24.0.0, SVG Export Plug-In . SVG Version: 6.00 Build 0)  -->
<svg version="1.1" id="Layer_1" xmlns="http://www.w3.org/2000/svg" xmlns:xlink="http://www.w3.org/1999/xlink" x="0px" y="0px"
	 viewBox="0 0 864 864" style="enable-background:new 0 0 864 864;" xml:space="preserve">
<path d="M610.2,253.8C657.8,301.4,684,364.7,684,432c0,67.3-26.2,130.6-73.8,178.2C562.6,657.8,499.3,684,432,684
	c-67.3,0-130.6-26.2-178.2-73.8c0,0,0,0,0,0C206.2,562.6,180,499.3,180,432c0-67.3,26.2-130.6,73.8-178.2
	C301.4,206.2,364.7,180,432,180C499.3,180,562.6,206.2,610.2,253.8C610.2,253.8,610.2,253.8,610.2,253.8z M280.7,374.4
	c39.6-5.5,101.5-11.1,171.8-6.8c79,4.8,148.8,20.9,207.4,47.7l7.7,3.5l-0.8-8.4c-5-54.7-29.1-106.2-68-145.1
	c-2.8-2.8-5.9-5.7-9.5-8.9l-0.3-0.3l-0.3-0.2c-66.7-43.3-143.8-4-211.9,30.6c-32.8,16.7-63.7,32.4-91.1,37.8l-3.1,0.6l-0.7,3.1
	c-3,13.1-5.2,26.8-6.6,41l-0.6,6.2L280.7,374.4z M296.2,305c22-6.8,46.9-19.5,73.3-32.9c39.2-20,83.1-42.3,126.4-49.4
	c9.8-1.6,19.9-1.8,29.8-1l22.7,1.9l-33.5-12.4c-26.5-10-54.4-15-82.8-15c-23.4,0-46.5,3.4-68.8,10.2l-0.4,0.1l-0.3,0.2
	c-31.9,15.4-57,47.2-72.4,92l-3.2,9.1L296.2,305z M279.1,443.9c48.8,3.1,103.3,41.3,155.9,78.2c64.6,45.3,125.6,88.1,171.5,67.7
	l1-0.4l0.7-0.8c36.5-41,57.6-93.8,59.4-148.6l0.1-3.2l-2.8-1.4c-59-29.3-130.7-46.8-213.3-51.8c-71.7-4.4-134.1,1.6-173.9,7.3
	l-4.1,0.6l-0.1,4.1c-0.4,14.4-0.1,29.1,1.1,43.7l0.3,4.2L279.1,443.9z M241.5,305c1.4,1.4,3.5,2.6,6.2,3.5
	c4.8,1.5,10.8,2.1,18.5,1.8l3.5-0.1l1-3.4c5.7-19.7,13.2-37.6,22.3-53.4l16.5-24.6l-23.8,18.3c-7.4,5.9-14.3,12-20.5,18.2
	c-9.1,9.1-17.6,19.2-25.4,30.1l-0.9,1.2l0,1.5c0,0.5,0,1.1,0.1,1.8c0.2,1.6,0.8,3.2,1.7,4.4C241,304.5,241.2,304.8,241.5,305z
	 M348.8,626.9c24.1,24.1,52,37.8,82.9,40.9l0.2,0l0.2,0c52,0,101.3-16.7,142.6-48.2l10-7.6l-12.5-1.2c-45-4.3-96.6-40.4-146.5-75.5
	c-49-34.4-99.6-69.9-142.8-74.9l-6.3-0.7l0.9,6.3c0.3,1.9,0.6,3.7,0.9,5.6c5.4,33.7,14.7,64.8,27.6,92.4
	C317.8,589.2,332.2,610.3,348.8,626.9z M207.4,388.5c13.6-3.6,29.8-7.1,47.1-10.1l3.7-0.6l0.6-6.5c1.2-13.3,3.1-26.4,5.6-39l1.2-5.7
	l-5.8-0.2c-6.5-0.2-12.2-1.1-16.9-2.6c-4.2-1.4-7.9-3.3-10.8-5.7l-4.6-3.7l-2.8,5.2c-10.7,19.8-18.6,41-23.2,63.1l-1.7,7.8
	L207.4,388.5z M211.6,484.8c0.8-2.8,1.5-5,2.4-7.1c5.7-13.8,15.6-23.5,29.3-28.9c3.5-1.4,7.2-2.5,11.2-3.3l4.2-0.9l-0.3-4.3
	c-1-13.4-1.5-26.9-1.2-40.1l0.1-6l-5.9,1.1c-19.9,3.6-37.5,7.8-50.9,12l-3.1,1l-0.3,3.3c-0.6,7.3-0.9,14-0.9,20.5
	c0,17.5,2,35.2,6,52.6l5.2,23.3L211.6,484.8z M265.3,598.7c19,19,40.9,34.5,65.2,46.1l27.5,12.5L336.1,637
	c-17.3-17.7-32.3-40-44.6-66.2c-13.6-29-23.3-61.5-29-96.7c-0.4-2.7-0.8-5.4-1.2-8.1l-0.8-5.4l-5.3,1.4c-2,0.5-4,1.2-5.9,1.9
	c-9.6,3.8-16.5,10.5-20.4,20c-3.4,8.3-4.8,18.8-4,31.2c1.2,21.1,8.1,40.8,10.1,46.4l0.2,0.5l0.3,0.5
	C244.3,575.5,254.3,587.7,265.3,598.7z"/>
</svg>
